<?xml version="1.0" standalone="no"?>
<!DOCTYPE svg PUBLIC "-//W3C//DTD SVG 20010904//EN"
 "http://www.w3.org/TR/2001/REC-SVG-20010904/DTD/svg10.dtd">
<svg version="1.0" xmlns="http://www.w3.org/2000/svg"
 width="640.000000pt" height="640.000000pt" viewBox="0 0 640.000000 640.000000"
 preserveAspectRatio="xMidYMid meet">
<metadata>
Created by potrace 1.11, written by Peter Selinger 2001-2013
</metadata>
<g transform="translate(0.000000,640.000000) scale(0.100000,-0.100000)"
fill="#000000" stroke="none">
<path d="M0 3200 l0 -3200 3200 0 3200 0 0 3200 0 3200 -3200 0 -3200 0 0
-3200z m3490 1934 c776 -113 1415 -693 1610 -1463 72 -286 72 -656 0 -942
-179 -704 -725 -1250 -1429 -1429 -286 -72 -656 -72 -942 0 -772 196 -1343
824 -1465 1615 -23 148 -23 422 0 570 122 791 692 1419 1465 1615 76 19 250
46 346 54 85 7 305 -4 415 -20z"/>
</g>
</svg>
